<svg xmlns="http://www.w3.org/2000/svg" version="1.1" xmlns:xlink="http://www.w3.org/1999/xlink" xmlns:svgjs="http://svgjs.dev/svgjs" width="2000" height="888" viewBox="0 0 2000 888"><g transform="matrix(1,0,0,1,-1.2121212121212466,-0.42176153554612483)"><svg viewBox="0 0 396 176" data-background-color="#ffffff" preserveAspectRatio="xMidYMid meet" height="888" width="2000" xmlns="http://www.w3.org/2000/svg" xmlns:xlink="http://www.w3.org/1999/xlink"><g id="tight-bounds" transform="matrix(1,0,0,1,0.2400000000000091,0.08359237641454342)"><svg viewBox="0 0 395.52 175.8328152471709" height="175.8328152471709" width="395.52"><g><svg viewBox="0 0 395.52 175.8328152471709" height="175.8328152471709" width="395.52"><g><svg viewBox="0 0 395.52 175.8328152471709" height="175.8328152471709" width="395.52"><g id="textblocktransform"><svg viewBox="0 0 395.52 175.8328152471709" height="175.8328152471709" width="395.52" id="textblock"><g><svg viewBox="0 0 395.52 175.8328152471709" height="175.8328152471709" width="395.52"><rect width="395.52" height="175.8328152471709" x="0" y="0" opacity="1" fill="#202046" data-fill-palette-color="tertiary"></rect><g transform="matrix(1,0,0,1,23.607599999999998,23.607599999999998)"><svg width="348.3048" viewBox="1.95 -29.79 81.98 30.28" height="128.61761524717093" data-palette-color="#ffffff"><path d="M1.95 0L15.92 0 15.92-1.27 10.06-1.27 10.06-14.4 20.12-14.4 20.12-15.82 10.06-15.82 10.06-28.03 17.87-28.03Q21.39-28.03 22.9-23.29L22.9-23.29Q23-23 23.05-22.8L23.05-22.8 23.73-20.51 24.71-20.51 24.46-29.3 1.95-29.3 1.95-28.03 5.86-28.03 5.86-1.27 1.95-1.27 1.95 0ZM51.95-2.25L51.95-2.25Q51.95-0.2 52.54 0.1L52.54 0.1Q52.88 0.24 53.46 0.24L53.46 0.24 53.46-8.98 52.29-8.98Q49.8-0.93 42.33-0.88L42.33-0.88Q35.98-0.88 33.69-7.28L33.69-7.28Q32.57-10.4 32.57-14.65L32.57-14.65Q32.57-23.78 37.6-27.05L37.6-27.05Q39.79-28.42 42.48-28.42L42.48-28.42Q48.58-28.42 51.32-22.66L51.32-22.66Q51.8-21.63 52.15-20.56L52.15-20.56 53.32-20.56 53.17-29.54Q52.1-29.54 51.85-28.86L51.85-28.86Q51.71-28.27 51.71-26.95L51.71-26.95Q50.29-28.37 46.87-29.25L46.87-29.25Q44.63-29.79 42.28-29.79L42.28-29.79Q34.57-29.79 30.47-24.07L30.47-24.07Q27.63-20.02 27.63-14.75L27.63-14.75Q27.63-8.35 31.59-4L31.59-4Q35.79 0.49 42.53 0.49L42.53 0.49Q47.46 0.44 51.95-2.25ZM82.42-2.25L82.42-2.25Q82.42-0.2 83 0.1L83 0.1Q83.34 0.24 83.93 0.24L83.93 0.24 83.93-8.98 82.76-8.98Q80.27-0.93 72.8-0.88L72.8-0.88Q66.45-0.88 64.16-7.28L64.16-7.28Q63.03-10.4 63.03-14.65L63.03-14.65Q63.03-23.78 68.06-27.05L68.06-27.05Q70.26-28.42 72.94-28.42L72.94-28.42Q79.05-28.42 81.78-22.66L81.78-22.66Q82.27-21.63 82.61-20.56L82.61-20.56 83.78-20.56 83.64-29.54Q82.56-29.54 82.32-28.86L82.32-28.86Q82.17-28.27 82.17-26.95L82.17-26.95Q80.76-28.37 77.34-29.25L77.34-29.25Q75.09-29.79 72.75-29.79L72.75-29.79Q65.03-29.79 60.93-24.07L60.93-24.07Q58.1-20.02 58.1-14.75L58.1-14.75Q58.1-8.35 62.06-4L62.06-4Q66.25 0.49 72.99 0.49L72.99 0.49Q77.92 0.44 82.42-2.25Z" opacity="1" transform="matrix(1,0,0,1,0,0)" fill="#ffffff" class="wordmark-text-0" data-fill-palette-color="quaternary" id="text-0"></path></svg></g></svg></g></svg></g></svg></g></svg></g><defs></defs></svg><rect width="395.52" height="175.8328152471709" fill="none" stroke="none" visibility="hidden"></rect></g></svg></g></svg>