<svg xmlns="http://www.w3.org/2000/svg" version="1.1" xmlns:xlink="http://www.w3.org/1999/xlink" xmlns:svgjs="http://svgjs.dev/svgjs" width="2000" height="2250" viewBox="0 0 2000 2250"><g transform="matrix(1,0,0,1,0,0)"><svg viewBox="0 0 320 360" data-background-color="#000000" preserveAspectRatio="xMidYMid meet" height="2250" width="2000" xmlns="http://www.w3.org/2000/svg" xmlns:xlink="http://www.w3.org/1999/xlink"><g id="tight-bounds" transform="matrix(1,0,0,1,0,0)"><svg viewBox="0 0 320 360" height="360" width="320"><rect width="320" height="360" fill="url(#3c90d9f8-9829-48d3-952b-d8f46a9d9fef)" mask="url(#5d15a010-916e-4927-9d3d-db12aeee911d)" data-fill-palette-color="tertiary"></rect><g><svg></svg></g><g><svg viewBox="0 0 320 360" height="360" width="320"><g><path d="M160 42.18c72.417 0 131.943 56.114 137.63 127.014h22.37c-1.137-17.82-5.308-34.882-12.133-51.185-7.962-18.957-19.716-36.398-34.502-50.805-14.787-14.787-31.848-26.161-50.806-34.503-20.095-8.341-40.948-12.891-62.559-12.891-21.611 0-42.464 4.171-62.559 12.512-18.957 7.962-36.398 19.716-50.806 34.503-14.787 14.787-26.161 31.848-34.502 50.805-6.825 16.303-10.995 33.744-12.133 51.185h22.37c5.687-70.521 65.213-126.635 137.63-126.635zM160 318.199c-72.417 0-131.943-56.114-137.63-127.014h-22.37c1.137 17.82 5.308 34.882 12.133 51.185 7.962 18.957 19.716 36.398 34.502 50.805 14.787 14.787 31.848 26.161 50.806 34.503 19.716 8.341 40.569 12.512 62.559 12.512 21.991 0 42.464-4.171 62.559-12.512 18.957-7.962 36.398-19.716 50.806-34.503 14.787-14.787 26.161-31.848 34.502-50.805 6.825-16.303 10.995-33.744 12.133-51.185h-22.37c-5.687 70.9-65.213 127.014-137.63 127.014z" fill="url(#3c90d9f8-9829-48d3-952b-d8f46a9d9fef)" fill-rule="nonzero" stroke="none" stroke-width="1" stroke-linecap="butt" stroke-linejoin="miter" stroke-miterlimit="10" stroke-dasharray="" stroke-dashoffset="0" font-family="none" font-weight="none" font-size="none" text-anchor="none" style="mix-blend-mode: normal" data-fill-palette-color="tertiary"></path></g><g transform="matrix(1,0,0,1,90.15691868758915,90)"><svg viewBox="0 0 139.6861626248217 180" height="180" width="139.6861626248217"><g><svg viewBox="0 0 139.6861626248217 180" height="180" width="139.6861626248217"><g><svg viewBox="0 0 139.6861626248217 180" height="180" width="139.6861626248217"><g id="textblocktransform"><svg viewBox="0 0 139.6861626248217 180" height="180" width="139.6861626248217" id="textblock"><g><svg viewBox="0 0 139.6861626248217 180" height="180" width="139.6861626248217"><g transform="matrix(1,0,0,1,0,0)"><svg width="139.6861626248217" viewBox="2.5 -35.05 27.200000000000003 35.05" height="180" data-palette-color="url(#a824aa27-35fc-4cec-a785-69eece63ee5c)"></svg></g></svg></g></svg></g></svg></g><g></g></svg></g></svg></g></svg></g><defs></defs><mask id="29a57004-8300-4a4d-a393-7f9e3c8d4b97"><g id="SvgjsG1132"><svg viewBox="0 0 320 360" height="360" width="320"><g><svg></svg></g><g><svg viewBox="0 0 320 360" height="360" width="320"><g><path d="M160 42.18c72.417 0 131.943 56.114 137.63 127.014h22.37c-1.137-17.82-5.308-34.882-12.133-51.185-7.962-18.957-19.716-36.398-34.502-50.805-14.787-14.787-31.848-26.161-50.806-34.503-20.095-8.341-40.948-12.891-62.559-12.891-21.611 0-42.464 4.171-62.559 12.512-18.957 7.962-36.398 19.716-50.806 34.503-14.787 14.787-26.161 31.848-34.502 50.805-6.825 16.303-10.995 33.744-12.133 51.185h22.37c5.687-70.521 65.213-126.635 137.63-126.635zM160 318.199c-72.417 0-131.943-56.114-137.63-127.014h-22.37c1.137 17.82 5.308 34.882 12.133 51.185 7.962 18.957 19.716 36.398 34.502 50.805 14.787 14.787 31.848 26.161 50.806 34.503 19.716 8.341 40.569 12.512 62.559 12.512 21.991 0 42.464-4.171 62.559-12.512 18.957-7.962 36.398-19.716 50.806-34.503 14.787-14.787 26.161-31.848 34.502-50.805 6.825-16.303 10.995-33.744 12.133-51.185h-22.37c-5.687 70.9-65.213 127.014-137.63 127.014z" fill="black" fill-rule="nonzero" stroke="none" stroke-width="1" stroke-linecap="butt" stroke-linejoin="miter" stroke-miterlimit="10" stroke-dasharray="" stroke-dashoffset="0" font-family="none" font-weight="none" font-size="none" text-anchor="none" style="mix-blend-mode: normal"></path></g><g transform="matrix(1,0,0,1,90.15691868758915,90)"><svg viewBox="0 0 139.6861626248217 180" height="180" width="139.6861626248217"><g><svg viewBox="0 0 139.6861626248217 180" height="180" width="139.6861626248217"><g><svg viewBox="0 0 139.6861626248217 180" height="180" width="139.6861626248217"><g id="SvgjsG1131"><svg viewBox="0 0 139.6861626248217 180" height="180" width="139.6861626248217" id="SvgjsSvg1130"><g><svg viewBox="0 0 139.6861626248217 180" height="180" width="139.6861626248217"><g transform="matrix(1,0,0,1,0,0)"><svg width="139.6861626248217" viewBox="2.5 -35.05 27.200000000000003 35.05" height="180" data-palette-color="url(#a824aa27-35fc-4cec-a785-69eece63ee5c)"><path d="M29.7-33.9L29.7-0.85Q29.7 0 24.65 0 19.6 0 19.6-0.85L19.6-0.85 19.6-12.35 12.6-12.35 12.6-0.85Q12.6 0 7.55 0 2.5 0 2.5-0.85L2.5-0.85 2.5-34Q2.5-35.05 7.55-35.05 12.6-35.05 12.6-34L12.6-34 12.6-22.25 19.6-22.25 19.6-33.9Q19.6-34.6 22.1-34.9L22.1-34.9Q23.4-35 24.65-35L24.65-35 27.2-34.9Q29.7-34.6 29.7-33.9L29.7-33.9Z" opacity="1" transform="matrix(1,0,0,1,0,0)" fill="white" class="wordmark-text-0" id="SvgjsPath1129"></path></svg></g></svg></g></svg></g></svg></g><g></g></svg></g></svg></g></svg></g><defs><mask></mask></defs></svg><rect width="320" height="360" fill="black" stroke="none" visibility="hidden"></rect></g></mask><linearGradient x1="0" x2="1" y1="0.578" y2="0.595" id="a824aa27-35fc-4cec-a785-69eece63ee5c"><stop stop-color="#6ee2f5" offset="0"></stop><stop stop-color="#6454f0" offset="1"></stop></linearGradient><rect width="320" height="360" fill="url(#a824aa27-35fc-4cec-a785-69eece63ee5c)" mask="url(#29a57004-8300-4a4d-a393-7f9e3c8d4b97)" data-fill-palette-color="primary"></rect><mask id="5d15a010-916e-4927-9d3d-db12aeee911d"><g id="SvgjsG1155"><svg viewBox="0 0 320 360" height="360" width="320"><g><svg></svg></g><g><svg viewBox="0 0 320 360" height="360" width="320"><g><path d="M160 42.18c72.417 0 131.943 56.114 137.63 127.014h22.37c-1.137-17.82-5.308-34.882-12.133-51.185-7.962-18.957-19.716-36.398-34.502-50.805-14.787-14.787-31.848-26.161-50.806-34.503-20.095-8.341-40.948-12.891-62.559-12.891-21.611 0-42.464 4.171-62.559 12.512-18.957 7.962-36.398 19.716-50.806 34.503-14.787 14.787-26.161 31.848-34.502 50.805-6.825 16.303-10.995 33.744-12.133 51.185h22.37c5.687-70.521 65.213-126.635 137.63-126.635zM160 318.199c-72.417 0-131.943-56.114-137.63-127.014h-22.37c1.137 17.82 5.308 34.882 12.133 51.185 7.962 18.957 19.716 36.398 34.502 50.805 14.787 14.787 31.848 26.161 50.806 34.503 19.716 8.341 40.569 12.512 62.559 12.512 21.991 0 42.464-4.171 62.559-12.512 18.957-7.962 36.398-19.716 50.806-34.503 14.787-14.787 26.161-31.848 34.502-50.805 6.825-16.303 10.995-33.744 12.133-51.185h-22.37c-5.687 70.9-65.213 127.014-137.63 127.014z" fill="white" fill-rule="nonzero" stroke="none" stroke-width="1" stroke-linecap="butt" stroke-linejoin="miter" stroke-miterlimit="10" stroke-dasharray="" stroke-dashoffset="0" font-family="none" font-weight="none" font-size="none" text-anchor="none" style="mix-blend-mode: normal"></path></g><g transform="matrix(1,0,0,1,90.15691868758915,90)"><svg viewBox="0 0 139.6861626248217 180" height="180" width="139.6861626248217"><g><svg viewBox="0 0 139.6861626248217 180" height="180" width="139.6861626248217"><g><svg viewBox="0 0 139.6861626248217 180" height="180" width="139.6861626248217"><g id="SvgjsG1154"><svg viewBox="0 0 139.6861626248217 180" height="180" width="139.6861626248217" id="SvgjsSvg1153"><g><svg viewBox="0 0 139.6861626248217 180" height="180" width="139.6861626248217"><g transform="matrix(1,0,0,1,0,0)"><svg width="139.6861626248217" viewBox="2.5 -35.05 27.200000000000003 35.05" height="180" data-palette-color="url(#a824aa27-35fc-4cec-a785-69eece63ee5c)"></svg></g></svg></g></svg></g></svg></g><g></g></svg></g></svg></g></svg></g><defs><mask></mask></defs><mask><g id="SvgjsG1152"><svg viewBox="0 0 320 360" height="360" width="320"><g><svg></svg></g><g><svg viewBox="0 0 320 360" height="360" width="320"><g><path d="M160 42.18c72.417 0 131.943 56.114 137.63 127.014h22.37c-1.137-17.82-5.308-34.882-12.133-51.185-7.962-18.957-19.716-36.398-34.502-50.805-14.787-14.787-31.848-26.161-50.806-34.503-20.095-8.341-40.948-12.891-62.559-12.891-21.611 0-42.464 4.171-62.559 12.512-18.957 7.962-36.398 19.716-50.806 34.503-14.787 14.787-26.161 31.848-34.502 50.805-6.825 16.303-10.995 33.744-12.133 51.185h22.37c5.687-70.521 65.213-126.635 137.63-126.635zM160 318.199c-72.417 0-131.943-56.114-137.63-127.014h-22.37c1.137 17.82 5.308 34.882 12.133 51.185 7.962 18.957 19.716 36.398 34.502 50.805 14.787 14.787 31.848 26.161 50.806 34.503 19.716 8.341 40.569 12.512 62.559 12.512 21.991 0 42.464-4.171 62.559-12.512 18.957-7.962 36.398-19.716 50.806-34.503 14.787-14.787 26.161-31.848 34.502-50.805 6.825-16.303 10.995-33.744 12.133-51.185h-22.37c-5.687 70.9-65.213 127.014-137.63 127.014z" fill="black" fill-rule="nonzero" stroke="none" stroke-width="1" stroke-linecap="butt" stroke-linejoin="miter" stroke-miterlimit="10" stroke-dasharray="" stroke-dashoffset="0" font-family="none" font-weight="none" font-size="none" text-anchor="none" style="mix-blend-mode: normal"></path></g><g transform="matrix(1,0,0,1,90.15691868758915,90)"><svg viewBox="0 0 139.6861626248217 180" height="180" width="139.6861626248217"><g><svg viewBox="0 0 139.6861626248217 180" height="180" width="139.6861626248217"><g><svg viewBox="0 0 139.6861626248217 180" height="180" width="139.6861626248217"><g id="SvgjsG1151"><svg viewBox="0 0 139.6861626248217 180" height="180" width="139.6861626248217" id="SvgjsSvg1150"><g><svg viewBox="0 0 139.6861626248217 180" height="180" width="139.6861626248217"><g transform="matrix(1,0,0,1,0,0)"><svg width="139.6861626248217" viewBox="2.5 -35.05 27.200000000000003 35.05" height="180" data-palette-color="url(#a824aa27-35fc-4cec-a785-69eece63ee5c)"><path d="M29.7-33.9L29.7-0.85Q29.7 0 24.65 0 19.6 0 19.6-0.85L19.6-0.85 19.6-12.35 12.6-12.35 12.6-0.85Q12.6 0 7.55 0 2.5 0 2.5-0.85L2.5-0.85 2.5-34Q2.5-35.05 7.55-35.05 12.6-35.05 12.6-34L12.6-34 12.6-22.25 19.6-22.25 19.6-33.9Q19.6-34.6 22.1-34.9L22.1-34.9Q23.4-35 24.65-35L24.65-35 27.2-34.9Q29.7-34.6 29.7-33.9L29.7-33.9Z" opacity="1" transform="matrix(1,0,0,1,0,0)" fill="black" class="wordmark-text-0" id="SvgjsPath1149"></path></svg></g></svg></g></svg></g></svg></g><g></g></svg></g></svg></g></svg></g><defs><mask></mask></defs></svg><rect width="320" height="360" fill="black" stroke="none" visibility="hidden"></rect></g></mask></svg><rect width="320" height="360" fill="black" stroke="none" visibility="hidden"></rect></g></mask><linearGradient x1="0" x2="1" y1="0.578" y2="0.595" id="3c90d9f8-9829-48d3-952b-d8f46a9d9fef"><stop stop-color="#6ee2f5" offset="0"></stop><stop stop-color="#6454f0" offset="1"></stop></linearGradient></svg><rect width="320" height="360" fill="none" stroke="none" visibility="hidden"></rect></g></svg></g></svg>